<!-- This is a placeholder SVG for dashboard-preview.png -->
<!-- Replace this file with a real PNG screenshot following the IMAGE_GUIDE.md -->
<svg width="1200" height="800" xmlns="http://www.w3.org/2000/svg">
  <defs>
    <linearGradient id="dashGrad" x1="0%" y1="0%" x2="100%" y2="100%">
      <stop offset="0%" style="stop-color:#F8F9FA;stop-opacity:1" />
      <stop offset="100%" style="stop-color:#E9ECEF;stop-opacity:1" />
    </linearGradient>
  </defs>
  
  <!-- Background -->
  <rect width="100%" height="100%" fill="url(#dashGrad)" rx="16"/>
  
  <!-- Header -->
  <rect x="0" y="0" width="1200" height="80" fill="#FFFFFF" rx="16 16 0 0"/>
  <rect x="40" y="20" width="120" height="40" fill="#4A90E2" rx="8"/>
  <text x="100" y="45" font-family="Arial, sans-serif" font-size="14" font-weight="bold" 
        fill="white" text-anchor="middle">Kanopy</text>
  
  <!-- Navigation -->
  <rect x="200" y="30" width="60" height="20" fill="#6C757D" rx="4"/>
  <rect x="280" y="30" width="80" height="20" fill="#6C757D" rx="4"/>
  <rect x="380" y="30" width="70" height="20" fill="#6C757D" rx="4"/>
  
  <!-- User profile -->
  <circle cx="1120" cy="40" r="20" fill="#7ED6A7"/>
  
  <!-- Sidebar -->
  <rect x="0" y="80" width="240" height="720" fill="#F8F9FA"/>
  <rect x="20" y="100" width="200" height="30" fill="#4A90E2" rx="6"/>
  <rect x="20" y="140" width="200" height="30" fill="rgba(108,117,125,0.1)" rx="6"/>
  <rect x="20" y="180" width="200" height="30" fill="rgba(108,117,125,0.1)" rx="6"/>
  <rect x="20" y="220" width="200" height="30" fill="rgba(108,117,125,0.1)" rx="6"/>
  
  <!-- Main content area -->
  <rect x="260" y="100" width="920" height="680" fill="#FFFFFF" rx="12"/>
  
  <!-- Stats cards -->
  <rect x="300" y="140" width="200" height="120" fill="#F8F9FA" rx="8"/>
  <rect x="520" y="140" width="200" height="120" fill="#F8F9FA" rx="8"/>
  <rect x="740" y="140" width="200" height="120" fill="#F8F9FA" rx="8"/>
  <rect x="960" y="140" width="200" height="120" fill="#F8F9FA" rx="8"/>
  
  <!-- Numbers in stats -->
  <text x="400" y="180" font-family="Arial, sans-serif" font-size="24" font-weight="bold" 
        fill="#4A90E2" text-anchor="middle">1,247</text>
  <text x="400" y="200" font-family="Arial, sans-serif" font-size="12" 
        fill="#6C757D" text-anchor="middle">Active Employees</text>
        
  <text x="620" y="180" font-family="Arial, sans-serif" font-size="24" font-weight="bold" 
        fill="#7ED6A7" text-anchor="middle">85%</text>
  <text x="620" y="200" font-family="Arial, sans-serif" font-size="12" 
        fill="#6C757D" text-anchor="middle">Engagement Rate</text>
        
  <text x="840" y="180" font-family="Arial, sans-serif" font-size="24" font-weight="bold" 
        fill="#F59E0B" text-anchor="middle">₫2.1M</text>
  <text x="840" y="200" font-family="Arial, sans-serif" font-size="12" 
        fill="#6C757D" text-anchor="middle">Monthly Savings</text>
        
  <text x="1060" y="180" font-family="Arial, sans-serif" font-size="24" font-weight="bold" 
        fill="#8B5CF6" text-anchor="middle">156</text>
  <text x="1060" y="200" font-family="Arial, sans-serif" font-size="12" 
        fill="#6C757D" text-anchor="middle">Partner Brands</text>
  
  <!-- Chart area -->
  <rect x="300" y="300" width="640" height="300" fill="#F8F9FA" rx="8"/>
  <text x="620" y="330" font-family="Arial, sans-serif" font-size="16" font-weight="bold" 
        fill="#343A40" text-anchor="middle">Employee Engagement Over Time</text>
        
  <!-- Chart lines -->
  <polyline points="320,550 370,520 420,480 470,460 520,440 570,420 620,400 670,380 720,360 770,340 820,320 870,300 920,280" 
            fill="none" stroke="#4A90E2" stroke-width="3"/>
  <polyline points="320,570 370,560 420,540 470,520 520,500 570,480 620,460 670,440 720,420 770,400 820,380 870,360 920,340" 
            fill="none" stroke="#7ED6A7" stroke-width="3"/>
  
  <!-- Recent activity -->
  <rect x="960" y="300" width="200" height="300" fill="#F8F9FA" rx="8"/>
  <text x="1060" y="330" font-family="Arial, sans-serif" font-size="14" font-weight="bold" 
        fill="#343A40" text-anchor="middle">Recent Activity</text>
        
  <!-- Activity items -->
  <circle cx="980" cy="360" r="4" fill="#7ED6A7"/>
  <rect x="990" y="350" width="150" height="20" fill="rgba(108,117,125,0.1)" rx="3"/>
  
  <circle cx="980" cy="390" r="4" fill="#4A90E2"/>
  <rect x="990" y="380" width="150" height="20" fill="rgba(108,117,125,0.1)" rx="3"/>
  
  <circle cx="980" cy="420" r="4" fill="#F59E0B"/>
  <rect x="990" y="410" width="150" height="20" fill="rgba(108,117,125,0.1)" rx="3"/>
  
  <!-- Footer -->
  <text x="620" y="780" font-family="Arial, sans-serif" font-size="12" 
        fill="#6C757D" text-anchor="middle">Kanopy Dashboard - Employee Benefits Platform</text>
</svg>